<svg width="20" height="19" viewBox="0 0 20 19" fill="none" xmlns="http://www.w3.org/2000/svg">
    <g clip-path="url(#nvbt9497qa)">
        <path d="M19.481 9.936a1.947 1.947 0 0 0-.169-.818c-1.285-2.816-3.679-4.624-3.779-4.697-1.715-1.296-3.58-1.955-5.531-1.959v-.014c-1.957.003-3.819.661-5.537 1.96C4.368 4.48 1.97 6.288.69 9.103c-.01.015-.174.355-.172.819H.515c-.005.468.162.812.171.825 1.283 2.816 3.68 4.624 3.777 4.697 1.718 1.298 3.58 1.954 5.534 1.96v.013c1.957-.003 3.82-.662 5.539-1.96.1-.073 2.494-1.88 3.779-4.695.009-.015.173-.358.169-.826h-.003zM10 13.386c-1.363 0-3.181-1.199-3.181-3.454 0-2.256 2.272-3.023 3.181-3.023.91 0 3.182.767 3.182 3.023 0 2.255-1.818 3.454-3.182 3.454z" fill="#CED1D2"/>
        <ellipse cx="10" cy="10.364" rx="3.636" ry="3.455" fill="#878C8F"/>
    </g>
    <defs>
        <clipPath id="nvbt9497qa">
            <path fill="#fff" d="M0 0h20v19H0z"/>
        </clipPath>
    </defs>
</svg>
