<svg width="11" height="10" viewBox="0 0 11 10" fill="none" xmlns="http://www.w3.org/2000/svg">
    <g clip-path="url(#65d36s7kpa)" fill="#888">
        <path d="M4.4 4.582c1.216 0 2.2-1.025 2.2-2.29C6.6 1.024 5.616 0 4.4 0 3.185 0 2.2 1.025 2.2 2.291s.985 2.291 2.2 2.291zm0-3.436c.605 0 1.1.515 1.1 1.145s-.495 1.146-1.1 1.146c-.605 0-1.1-.516-1.1-1.146 0-.63.495-1.145 1.1-1.145zM4.4 5.155c-1.469 0-4.4.768-4.4 2.291v1.719h8.8V7.446c0-1.523-2.932-2.29-4.4-2.29zM7.7 8.02H1.1v-.567c.11-.412 1.815-1.151 3.3-1.151 1.485 0 3.19.739 3.3 1.145v.573zM6.881.03a3.53 3.53 0 0 1 0 4.524c1.078-.143 1.92-1.094 1.92-2.262 0-1.169-.842-2.12-1.92-2.263zM9.092 5.63c.49.476.809 1.072.809 1.816v1.719H11V7.446c0-.83-.875-1.437-1.909-1.815z"/>
    </g>
    <defs>
        <clipPath id="65d36s7kpa">
            <path fill="#fff" transform="scale(1.01444)" d="M0 0h10.843v9.034H0z"/>
        </clipPath>
    </defs>
</svg>
