<svg width="47" height="47" viewBox="0 0 47 47" fill="none" xmlns="http://www.w3.org/2000/svg">
    <rect width="47" height="47" rx="15" fill="url(#qzy2a5dc2a)"/>
    <path d="M23.073 10.564c5.794 0 10.616 4.376 11.323 9.987h.09a2.863 2.863 0 0 1 2.848 2.68l.005.173v2.853a2.862 2.862 0 0 1-2.853 2.853c0 3.842-3.078 7-6.89 7.13l-.244.004h-1.807a2.852 2.852 0 0 1-5.326-1.427 2.854 2.854 0 0 1 5.325-1.427h1.808a4.285 4.285 0 0 0 4.275-4.066l.005-.214v-7.133l-.004-.255c-.136-4.591-3.933-8.304-8.555-8.304-4.623 0-8.42 3.713-8.556 8.304l-.004.255v5.707c0 .739-.569 1.35-1.29 1.42l-.137.006h-1.427a2.863 2.863 0 0 1-2.848-2.68l-.005-.173v-2.853a2.864 2.864 0 0 1 2.68-2.848l.173-.005h.09c.707-5.611 5.53-9.987 11.324-9.987z" fill="#fff"/>
    <defs>
        <linearGradient id="qzy2a5dc2a" x1="23.5" y1="0" x2="36.154" y2="43.385" gradientUnits="userSpaceOnUse">
            <stop stop-color="#AF2DF4"/>
            <stop offset="1" stop-color="#2D45FE"/>
        </linearGradient>
    </defs>
</svg>
