<svg width="12" height="11" viewBox="0 0 12 11" fill="none" xmlns="http://www.w3.org/2000/svg">
<path d="M10.5809 2.23421V0H1.43329V2.23421H4.80572V3.69387C2.06432 3.81716 0 4.35756 0 5.00593C0 5.65431 2.0643 6.19468 4.80572 6.31798V11.0025H7.20848V6.31688C9.93931 6.19174 11.9932 5.65232 11.9932 5.00591C11.9932 4.35942 9.93931 3.81983 7.20848 3.69485V2.23419H10.5809V2.23421ZM10.9603 4.87393C10.9603 5.30036 9.36412 5.65805 7.20848 5.75736L7.06918 5.76327H7.05378L6.92315 5.76808H6.90902C6.81186 5.7714 6.71352 5.77425 6.61394 5.7765H6.60777L6.4742 5.77927H6.43644L6.33104 5.78069H5.66353L5.55921 5.77927H5.52297L5.39835 5.77666H5.38465C5.23694 5.77336 5.09146 5.76881 4.94813 5.76327H4.94625L4.80356 5.75709C2.63716 5.6593 1.03066 5.30036 1.03066 4.8719C1.03066 4.44333 2.63743 4.08546 4.80356 3.98659V5.34168C5.17959 5.36128 5.57961 5.37203 5.99447 5.37203C6.41595 5.37203 6.82404 5.3611 7.20641 5.3406V3.99062C9.36393 4.08967 10.9603 4.44754 10.9603 4.87393Z" fill="#6EBE82"/>
</svg>
