<svg width="54" height="54" viewBox="0 0 54 54" fill="none" xmlns="http://www.w3.org/2000/svg">
<path d="M41.2 21.9698C42.6251 22.2189 43.9168 22.9627 44.8475 24.0703C45.7783 25.1779 46.2886 26.5783 46.2886 28.025C46.2886 29.4718 45.7783 30.8722 44.8475 31.9798C43.9168 33.0874 42.6251 33.8311 41.2 34.0802V21.9698ZM39.4 33.9506V44.945C39.4003 45.2515 39.3224 45.5529 39.1736 45.8208C39.0248 46.0886 38.8101 46.3141 38.5498 46.4758C38.2895 46.6375 37.9923 46.7301 37.6862 46.7447C37.3801 46.7594 37.0754 46.6957 36.8008 46.5596L17.8 37.1546V43.4798C17.8 43.9572 17.6104 44.4151 17.2728 44.7526C16.9352 45.0902 16.4774 45.2798 16 45.2798H14.2C13.7226 45.2798 13.2648 45.0902 12.9272 44.7526C12.5896 44.4151 12.4 43.9572 12.4 43.4798V34.4816H12.3982L8.8 34.4798C8.32261 34.4798 7.86477 34.2902 7.52721 33.9526C7.18964 33.6151 7 33.1572 7 32.6798V21.8798C7 21.4025 7.18964 20.9446 7.52721 20.6071C7.86477 20.2695 8.32261 20.0798 8.8 20.0798H12.427L36.8116 8.18185C37.0862 8.04808 37.3902 7.98636 37.6952 8.00252C38.0002 8.01868 38.2961 8.11217 38.555 8.2742C38.8138 8.43623 39.0272 8.66147 39.1751 8.92872C39.3229 9.19596 39.4003 9.49643 39.4 9.80185V33.9506ZM10.6 23.6798V30.8798H14.2V23.6798H10.6Z" fill="#CC131A"/>
</svg>
